<mxfile host="65bd71144e" modified="2021-05-02T19:09:31.142Z" agent="5.0 (X11; Linux x86_64) AppleWebKit/537.36 (KHTML, like Gecko) Code/1.55.2 Chrome/87.0.4280.141 Electron/11.3.0 Safari/537.36" version="13.10.0" etag="EzA2TlzjZvBTwOBowOVu" type="embed">
    <diagram id="Quw2vWZHUaJEDm3VvNR1" name="Page-1">
        <mxGraphModel dx="1327" dy="545" grid="1" gridSize="10" guides="1" tooltips="1" connect="1" arrows="1" fold="1" page="1" pageScale="1" pageWidth="850" pageHeight="1100" math="0" shadow="0">
            <root>
                <mxCell id="0"/>
                <mxCell id="1" parent="0"/>
                <mxCell id="2" value="init" style="rounded=0;whiteSpace=wrap;html=1;fillColor=none;fontSize=18;" vertex="1" parent="1">
                    <mxGeometry x="240" y="280" width="160" height="40" as="geometry"/>
                </mxCell>
                <mxCell id="22" style="edgeStyle=orthogonalEdgeStyle;rounded=0;orthogonalLoop=1;jettySize=auto;html=1;entryX=0;entryY=0.5;entryDx=0;entryDy=0;fontSize=18;" edge="1" parent="1" source="3" target="5">
                    <mxGeometry relative="1" as="geometry">
                        <Array as="points">
                            <mxPoint x="200" y="340"/>
                            <mxPoint x="200" y="540"/>
                        </Array>
                    </mxGeometry>
                </mxCell>
                <mxCell id="3" value="run&lt;br&gt;super()" style="rounded=0;whiteSpace=wrap;html=1;fillColor=none;fontSize=18;" vertex="1" parent="1">
                    <mxGeometry x="240" y="320" width="160" height="40" as="geometry"/>
                </mxCell>
                <mxCell id="4" value="init" style="rounded=0;whiteSpace=wrap;html=1;fillColor=none;fontSize=18;" vertex="1" parent="1">
                    <mxGeometry x="360" y="480" width="160" height="40" as="geometry"/>
                </mxCell>
                <mxCell id="16" style="edgeStyle=orthogonalEdgeStyle;rounded=0;orthogonalLoop=1;jettySize=auto;html=1;entryX=0;entryY=0.5;entryDx=0;entryDy=0;fontSize=18;" edge="1" parent="1" source="5" target="7">
                    <mxGeometry relative="1" as="geometry">
                        <Array as="points">
                            <mxPoint x="440" y="660"/>
                        </Array>
                    </mxGeometry>
                </mxCell>
                <mxCell id="5" value="run&lt;br&gt;super()" style="rounded=0;whiteSpace=wrap;html=1;fillColor=none;fontSize=18;" vertex="1" parent="1">
                    <mxGeometry x="360" y="520" width="160" height="40" as="geometry"/>
                </mxCell>
                <mxCell id="6" value="init" style="rounded=0;whiteSpace=wrap;html=1;fillColor=none;fontSize=18;" vertex="1" parent="1">
                    <mxGeometry x="560" y="600" width="160" height="40" as="geometry"/>
                </mxCell>
                <mxCell id="7" value="run" style="rounded=0;whiteSpace=wrap;html=1;fillColor=none;fontSize=18;" vertex="1" parent="1">
                    <mxGeometry x="560" y="640" width="160" height="40" as="geometry"/>
                </mxCell>
                <mxCell id="8" value="A" style="text;html=1;align=center;verticalAlign=middle;resizable=0;points=[];autosize=1;fontSize=18;" vertex="1" parent="1">
                    <mxGeometry x="305" y="250" width="30" height="30" as="geometry"/>
                </mxCell>
                <mxCell id="9" value="B" style="text;html=1;align=center;verticalAlign=middle;resizable=0;points=[];autosize=1;fontSize=18;" vertex="1" parent="1">
                    <mxGeometry x="425" y="450" width="30" height="30" as="geometry"/>
                </mxCell>
                <mxCell id="10" value="Base" style="text;html=1;align=center;verticalAlign=middle;resizable=0;points=[];autosize=1;fontSize=18;" vertex="1" parent="1">
                    <mxGeometry x="610" y="570" width="60" height="30" as="geometry"/>
                </mxCell>
                <mxCell id="11" value="C" style="text;html=1;align=center;verticalAlign=middle;resizable=0;points=[];autosize=1;fontSize=18;" vertex="1" parent="1">
                    <mxGeometry x="90" y="390" width="30" height="30" as="geometry"/>
                </mxCell>
                <mxCell id="18" style="edgeStyle=orthogonalEdgeStyle;rounded=0;orthogonalLoop=1;jettySize=auto;html=1;entryX=0;entryY=0.5;entryDx=0;entryDy=0;fontSize=18;" edge="1" parent="1" source="17" target="4">
                    <mxGeometry relative="1" as="geometry"/>
                </mxCell>
                <mxCell id="17" value="init" style="rounded=0;whiteSpace=wrap;html=1;fillColor=none;fontSize=18;" vertex="1" parent="1">
                    <mxGeometry x="60" y="420" width="90" height="40" as="geometry"/>
                </mxCell>
                <mxCell id="21" style="edgeStyle=orthogonalEdgeStyle;rounded=0;orthogonalLoop=1;jettySize=auto;html=1;entryX=0.5;entryY=1;entryDx=0;entryDy=0;fontSize=18;" edge="1" parent="1" source="19" target="3">
                    <mxGeometry relative="1" as="geometry"/>
                </mxCell>
                <mxCell id="19" value="run" style="rounded=0;whiteSpace=wrap;html=1;fillColor=#d5e8d4;fontSize=18;strokeColor=#82b366;" vertex="1" parent="1">
                    <mxGeometry x="60" y="460" width="90" height="40" as="geometry"/>
                </mxCell>
            </root>
        </mxGraphModel>
    </diagram>
</mxfile>